<svg xmlns="http://www.w3.org/2000/svg" version="1.1" xmlns:xlink="http://www.w3.org/1999/xlink" viewBox="0 0 13.876899815161492 6.970482927713906"><g transform="matrix(0.8004904897454085,0,0,0.8004904897454085,2.0796255605605465,3.8105459234134424)"><rect width="15.614181710401109" height="15.614181710401109" x="-1.737281895239617" y="-8.213472272248932" fill="#f2f0f0"></rect><g transform="matrix(-1,0,0,1,8.584006152190488,0)" clip-path="url(#SvgjsClipPath77930)"><g clip-path="url(#b56195fb7-4234-4097-9791-97b52e8b6aa567249a3c-1843-4ef0-a30c-840793f45219)"><path d=" M 0.8517943235747708 -1.122457672571215 C 0.8517943235747708 -1.2294891769235834 0.9374504833847502 -1.3160585484120573 1.0435532978945818 -1.3160585484120573 C 1.1495477652561175 -1.3160585484120573 1.2352039250660969 -1.2294891769235834 1.2352039250660969 -1.122457672571215 C 1.2352039250660969 -1.0151630394301279 1.1495477652561175 -0.9284079299731465 1.0435532978945818 -0.9284079299731465 C 0.9374504833847502 -0.9284079299731465 0.8517943235747708 -1.0151630394301279 0.8517943235747708 -1.122457672571215" fill="#d3b39f" transform="matrix(1,0,0,1,0,0)" fill-rule="nonzero"></path></g><g clip-path="url(#b56195fb7-4234-4097-9791-97b52e8b6aa567249a3c-1843-4ef0-a30c-840793f45219)"><path d=" M 1.0603780622085404 -0.5117821884470874 L 0.8138573435071416 -0.34242011749645584 C 0.8138573435071416 -0.34242011749645584 0.7868634254174047 -0.45471419762319965 0.7781646972256432 -0.49642784971714526 C 0.7673454605600892 -0.5489762166406873 0.7597611601793719 -0.5793134181635562 0.7307086462720117 -0.6504355819378347 C 0.6924156684314102 -0.7446976009553219 0.47764066418072837 -1.1294847590464105 0.445647299105335 -1.2045074201593429 C 0.445647299105335 -1.2045074201593429 0.4259281181154698 -1.2438993476469467 0.44276836059347086 -1.2943117279326535 C 0.4876240799879992 -1.4291884493970843 0.6199004698933269 -1.8284012563755783 0.6337843830392523 -1.855874997550626 C 0.6568932819543768 -1.9026809656144819 0.693344358273947 -1.900374719172182 0.7207252304647409 -1.8896328733268393 C 0.7852846526850921 -1.86438798777388 0.7517125148773861 -1.7998285655535289 0.7517125148773861 -1.7998285655535289 L 0.5690237446863514 -1.2606467211406938 C 0.5690237446863514 -1.2606467211406938 0.769373100049628 -0.918873380923102 0.7856561286221069 -0.8968634316549791 C 0.8136870837026765 -0.8593907965086185 0.8534504871272947 -0.8568988120978114 0.8534504871272947 -0.8568988120978114 L 1.2231773916052449 -0.8633686846674844 C 1.2231773916052449 -0.8633686846674844 1.2643338297936682 -0.8987982021602643 1.2790380856338346 -0.9246931706029993 C 1.3283515162725394 -1.011092282287008 1.4015167977003986 -1.1562155483474281 1.453492472554376 -1.2832293624783808 L 1.2850590914462816 -1.7857589144390962 C 1.2850590914462816 -1.7857589144390962 1.2794095615708494 -1.8558749975506263 1.3160463758589267 -1.871322205264822 C 1.343226031917171 -1.882698655835898 1.3992879420783102 -1.8914747748478713 1.422690926110238 -1.844591415963804 C 1.439252561635478 -1.811297885108859 1.5720706872822856 -1.41225533793483 1.5977025269363019 -1.2838639672041146 C 1.6051784801687232 -1.2466699390105151 1.5883537158547647 -1.2129275413983438 1.5883537158547647 -1.2129275413983438 C 1.5883537158547647 -1.2129275413983438 1.3406411785221102 -0.6909574154005242 1.323073462334122 -0.6621835084459251 C 1.3161392448431806 -0.6511785338118639 1.3010635130659995 -0.5679369675924804 1.2934637345212399 -0.5035478051765945 C 1.2894858463623737 -0.4696041914318738 1.2820872839501638 -0.3976462067993123 1.2756174113804906 -0.3542609129888006 Z" fill="#d3b39f" transform="matrix(1,0,0,1,0,0)" fill-rule="nonzero"></path></g><g clip-path="url(#b56195fb7-4234-4097-9791-97b52e8b6aa567249a3c-1843-4ef0-a30c-840793f45219)"><path d=" M 1.5103902035737986 -1.7174847328485976 L 1.4228766640787456 -1.9414228102123094 L 1.5896693597983584 -2.0077467431334806 L 1.6773531590978763 -1.7836229278012614 Z" fill="#d3b39f" transform="matrix(1,0,0,1,0,0)" fill-rule="nonzero"></path></g><g clip-path="url(#b56195fb7-4234-4097-9791-97b52e8b6aa567249a3c-1843-4ef0-a30c-840793f45219)"><path d=" M 1.2052381994802421 -1.704637856693505 L 1.191091157545598 -1.7403305029750034 L 1.4958562075380974 -1.8616947872305234 L 1.5097401206840229 -1.8259866627849828 Z" fill="#d3b39f" transform="matrix(1,0,0,1,0,0)" fill-rule="nonzero"></path></g><g clip-path="url(#b56195fb7-4234-4097-9791-97b52e8b6aa567249a3c-1843-4ef0-a30c-840793f45219)"><path d=" M 1.1486345535776228 -1.573290156630714 L 1.0611364922466122 -1.7972282339944257 L 1.2278208408179287 -1.8638152957043157 L 1.3155046401174468 -1.6397998275203924 Z" fill="#d3b39f" transform="matrix(1,0,0,1,0,0)" fill-rule="nonzero"></path></g><g clip-path="url(#b56195fb7-4234-4097-9791-97b52e8b6aa567249a3c-1843-4ef0-a30c-840793f45219)"><path d=" M 0.5438717281176461 -1.697688161038521 L 0.6381337471351333 -1.9188556470386646 L 0.47912656792878744 -1.987950171323404 L 0.38477167992704653 -1.7666124255187954 Z" fill="#d3b39f" transform="matrix(1,0,0,1,0,0)" fill-rule="nonzero"></path></g><g clip-path="url(#b56195fb7-4234-4097-9791-97b52e8b6aa567249a3c-1843-4ef0-a30c-840793f45219)"><path d=" M 0.8395046613252003 -1.6795632309450108 L 0.8545803931023812 -1.7147141414850295 L 0.5640397758647373 -1.840799265773445 L 0.5489640440875563 -1.80574122421768 Z" fill="#d3b39f" transform="matrix(1,0,0,1,0,0)" fill-rule="nonzero"></path></g><g clip-path="url(#b56195fb7-4234-4097-9791-97b52e8b6aa567249a3c-1843-4ef0-a30c-840793f45219)"><path d=" M 0.8888026137998631 -1.5481226618979662 L 0.9832348926218155 -1.7691044099296025 L 0.8241348444312159 -1.8382918031985953 L 0.72960969662501 -1.617124317198452 Z" fill="#d3b39f" transform="matrix(1,0,0,1,0,0)" fill-rule="nonzero"></path></g><g clip-path="url(#b56195fb7-4234-4097-9791-97b52e8b6aa567249a3c-1843-4ef0-a30c-840793f45219)"><path d=" M 0.01609729060397154 -0.3117114400365715 C 0.10961635774742925 -0.34546931581278484 0.22579545704878537 -0.3677578720336685 0.3223637225085723 -0.5020773795925773 C 0.32929793999951384 -0.511782188447087 0.341231604476112 -0.5020773795925773 0.341231604476112 -0.5020773795925773 C 0.341231604476112 -0.5020773795925773 0.4893111998686079 -0.3058916503566742 0.678485320793358 -0.29756439810192736 C 0.8488534724067376 -0.28988722873695627 1.042175741294819 -0.5058540516188939 1.042175741294819 -0.5058540516188939 C 1.042175741294819 -0.5058540516188939 1.0724200738334346 -0.5172459803540121 1.0762122240237932 -0.5058540516188939 C 1.0800043742141519 -0.4944930792118596 1.239197291389005 -0.30070646540251067 1.4020894897699632 -0.29756439810192736 C 1.5991110398641495 -0.29358650994306146 1.7581182190704954 -0.509568810989041 1.7581182190704954 -0.509568810989041 C 1.7581182190704954 -0.509568810989041 1.7657025194512128 -0.5322288431469393 1.7808711202126475 -0.509568810989041 C 1.8296118587817882 -0.43668213651394305 1.8902862618275271 -0.36425980696011306 2.0671552423386643 -0.3079192898462133" fill="none" transform="matrix(1,0,0,1,0,0)" fill-rule="nonzero" stroke-dasharray="none" stroke-miterlimit="10" stroke-linejoin="miter" stroke-linecap="butt" stroke-width="0.0947108857747133" stroke="#d3b39f"></path></g><g clip-path="url(#b56195fb7-4234-4097-9791-97b52e8b6aa567249a3c-1843-4ef0-a30c-840793f45219)"><path d=" M 7.815327457212435 -2.542114878529166 C 7.775362837655267 -2.5542342809742715 7.7353982180981005 -2.5542342809742715 7.6914711885461085 -2.5542342809742715 C 7.639572904512343 -2.5542342809742715 7.569379430580601 -2.558212169133138 7.467533111182397 -2.558212169133138 C 7.440523714928617 -2.558212169133138 7.383177117151969 -2.558397907101645 7.3076901111177675 -2.5462785046565397 C 7.138513778135643 -2.5190833704342532 6.619979804555211 -2.422236498021705 6.619979804555211 -2.422236498021705 C 6.619979804555211 -2.422236498021705 6.563732156425564 -2.385692552717881 6.567895782552937 -2.3423227370714117 C 6.573452443444116 -2.2882110755796 6.639946636169752 -2.290331584053392 6.639946636169752 -2.290331584053392 L 7.335628197214083 -2.3463006252302776 L 7.347097516769414 -1.7343249753265986 C 7.347097516769414 -1.7343249753265986 7.324437484611515 -1.3114305773634154 7.301684583469362 -1.1403968646962181 C 7.293635938167377 -1.080449935360466 7.298356778200272 -1.0289386054277574 7.301684583469362 -1.007764477017918 C 7.325551912422559 -0.8516207581593944 7.347654730674936 -0.40716527768531474 7.347654730674936 -0.40716527768531474 L 7.547632610101197 -0.41928468013041975 L 7.493520948609386 -1.0666743693628367 L 7.582148915915482 -1.524177942124558 L 8.343674586795673 -0.6783736680341494 C 8.343674586795673 -0.6783736680341494 8.38715274959044 -0.6512714027961168 8.441171542097997 -0.6836362438085248 C 8.464481657145672 -0.6974272879701968 8.490005149651392 -0.7271144066032904 8.468258329171988 -0.7866898600020273 L 7.759373894199593 -1.7506080038990772 L 7.763429173178669 -2.358311680527087 L 8.48714168930357 -2.2464045545014004 C 8.48714168930357 -2.2464045545014004 8.552444063397951 -2.214117104309204 8.57917485269897 -2.274420031417928 C 8.600720457045822 -2.323176248151111 8.54300238333216 -2.3662674568448194 8.54300238333216 -2.3662674568448194 C 8.54300238333216 -2.3662674568448194 8.033631482864758 -2.476905373419039 7.815327457212435 -2.542114878529166" fill="#595959" transform="matrix(1,0,0,1,0,0)" fill-rule="nonzero"></path></g><g clip-path="url(#b56195fb7-4234-4097-9791-97b52e8b6aa567249a3c-1843-4ef0-a30c-840793f45219)"><path d=" M 7.915966479815342 -0.29728579114916664 L 6.95602622407716 -0.29728579114916664 C 6.95602622407716 -0.29728579114916664 6.942978131789517 -0.45489993559170694 7.059807313980649 -0.5129894852423851 L 7.825233482199495 -0.5044764950191314 C 7.941784057437866 -0.43010391679597415 7.915966479815342 -0.29728579114916664 7.915966479815342 -0.29728579114916664" fill="#595959" transform="matrix(1,0,0,1,0,0)" fill-rule="nonzero"></path></g><g clip-path="url(#b56195fb7-4234-4097-9791-97b52e8b6aa567249a3c-1843-4ef0-a30c-840793f45219)"><path d=" M 7.385019018673 -2.834125921350827 C 7.385019018673 -2.936792583443272 7.464948257787334 -3.020049627826698 7.563451293752408 -3.020049627826698 C 7.662047198701734 -3.020049627826698 7.742146697620534 -2.9367925834432724 7.742146697620534 -2.834125921350827 C 7.742146697620534 -2.7312580431258318 7.662047198701734 -2.6482950838592094 7.563451293752408 -2.6482950838592094 C 7.464948257787334 -2.6482950838592094 7.385019018673 -2.7312580431258318 7.385019018673 -2.834125921350827" fill="#595959" transform="matrix(1,0,0,1,0,0)" fill-rule="nonzero"></path></g><g clip-path="url(#b56195fb7-4234-4097-9791-97b52e8b6aa567249a3c-1843-4ef0-a30c-840793f45219)"><path d=" M 4.330093781648132 -0.40309452054219497 L 5.880448604779099 -0.40309452054219497 L 5.880448604779099 -0.29728579114916664 L 4.330093781648132 -0.29728579114916664 Z" fill="#eed9cb" transform="matrix(1,0,0,1,0,0)" fill-rule="nonzero"></path></g><g clip-path="url(#b56195fb7-4234-4097-9791-97b52e8b6aa567249a3c-1843-4ef0-a30c-840793f45219)"><path d=" M 5.841877019985737 -2.5180618116074625 C 5.841877019985737 -2.4070678972602706 5.754471827638979 -2.317155242338664 5.646619980592371 -2.317155242338664 C 5.538953871514269 -2.317155242338664 5.4513629411990046 -2.4070678972602706 5.4513629411990046 -2.5180618116074625 C 5.4513629411990046 -2.6291485949389086 5.538953871514269 -2.719246987829022 5.646619980592371 -2.719246987829022 C 5.754471827638979 -2.719246987829022 5.841877019985737 -2.6291485949389086 5.841877019985737 -2.5180618116074625" fill="#eed9cb" transform="matrix(1,0,0,1,0,0)" fill-rule="nonzero"></path></g><g clip-path="url(#b56195fb7-4234-4097-9791-97b52e8b6aa567249a3c-1843-4ef0-a30c-840793f45219)"><path d=" M 5.12872061173767 -2.546835718562062 L 4.399652650854139 -2.5402574988440927 C 4.399652650854139 -2.5402574988440927 4.242131375395853 -2.5204764051980586 4.2353828958734185 -2.3103138938319763 C 4.230476317872015 -2.1527926183736894 4.242502851332867 -2.224115998280517 4.222241934601523 -0.8126776974290166 C 4.222241934601523 -0.8126776974290166 4.255086598699241 -0.6814228663504798 4.366823464920463 -0.6880010860684491 C 4.478374593173178 -0.694563827622376 4.517859389645035 -0.7470967163818751 4.517859389645035 -0.8126776974290171 C 4.517859389645035 -0.8781658094919047 4.5113895170753615 -1.7782674830426328 4.5113895170753615 -1.7782674830426328 L 4.675581881235871 -1.640357041425915 L 4.393089909300213 -1.3315986251105074 L 4.379964426192359 -1.0165405960298917 L 4.951402764469306 -1.5615422301226236 C 4.951402764469306 -1.5615422301226236 5.043435927864705 -1.6601536132359918 4.971013598310876 -1.745252559140449 C 4.898869875709807 -1.8307075028178785 4.5967670699325796 -2.1197622163074636 4.5967670699325796 -2.1197622163074636 L 5.082657595547843 -2.1197622163074636 L 4.984247428567025 -1.994992735962642 C 4.984247428567025 -1.994992735962642 4.912088227801915 -1.8832558697414201 5.003858262408594 -1.8307075028178785 C 5.095798556819739 -1.7782674830426328 5.47679356472047 -1.4826345498350786 5.47679356472047 -1.4826345498350786 C 5.47679356472047 -1.4826345498350786 5.57521920986533 -1.4302873990440865 5.627844967609083 -1.4826345498350786 C 5.680470725352836 -1.5350900477743665 5.673722245830402 -1.620653338600092 5.640970450716937 -1.6535753935180224 C 5.60814126478326 -1.6863271886314877 5.253598439230787 -1.9424443690391002 5.253598439230787 -1.9424443690391002 L 5.4636680816126155 -2.1788733247849317 C 5.4636680816126155 -2.1788733247849317 5.529326453479968 -2.257781005072477 5.489934525992366 -2.3103138938319763 C 5.366248517130503 -2.4755278168192767 5.279772014626284 -2.5138981854800893 5.279772014626284 -2.5138981854800893 C 5.279772014626284 -2.5138981854800893 5.233801867420711 -2.5402574988440927 5.12872061173767 -2.546835718562062" fill="#eed9cb" transform="matrix(1,0,0,1,0,0)" fill-rule="nonzero"></path></g><g clip-path="url(#b56195fb7-4234-4097-9791-97b52e8b6aa567249a3c-1843-4ef0-a30c-840793f45219)"><path d=" M 5.876486194784275 -0.8647617194312902 C 5.876486194784275 -0.6674615623843425 5.716364587766885 -0.5076340404837558 5.519157299704192 -0.5076340404837558 C 5.321671404688737 -0.5076340404837558 5.1617510138038964 -0.6674615623843425 5.1617510138038964 -0.8647617194312902 C 5.1617510138038964 -1.0623404834309982 5.321671404688737 -1.2223692214641346 5.519157299704192 -1.2223692214641346 C 5.716364587766885 -1.2223692214641346 5.876486194784275 -1.0623404834309982 5.876486194784275 -0.8647617194312902 Z" fill="none" transform="matrix(1,0,0,1,0,0)" fill-rule="nonzero" stroke-dasharray="none" stroke-miterlimit="10" stroke-linejoin="miter" stroke-linecap="butt" stroke-width="0.0947108857747133" stroke="#eed9cb"></path></g><g clip-path="url(#b56195fb7-4234-4097-9791-97b52e8b6aa567249a3c-1843-4ef0-a30c-840793f45219)"><path d=" M 4.445081062318233 -0.36138086844824935 L 4.338699640855641 -0.3248524013084677 L 3.964375721657133 -1.4082774497759634 L 4.070741664955683 -1.4450845238685062 Z" fill="#eed9cb" transform="matrix(1,0,0,1,0,0)" fill-rule="nonzero"></path></g><g clip-path="url(#b56195fb7-4234-4097-9791-97b52e8b6aa567249a3c-1843-4ef0-a30c-840793f45219)"><path d=" M 4.261277864316154 -1.375339916693991 L 3.811374070099192 -1.375339916693991 C 3.811374070099192 -1.375339916693991 3.7604973448922165 -1.5708910412041606 3.9014569848252636 -1.5810601949799388 C 4.048530499555011 -1.5916936936769854 4.06916289222337 -1.468208900947673 4.184134694729429 -1.478207794918986 C 4.235290026889166 -1.482835765967628 4.312618934444398 -1.4396207319615812 4.261277864316154 -1.375339916693991" fill="#eed9cb" transform="matrix(1,0,0,1,0,0)" fill-rule="nonzero"></path></g><g clip-path="url(#b56195fb7-4234-4097-9791-97b52e8b6aa567249a3c-1843-4ef0-a30c-840793f45219)"><path d=" M 5.713949994176289 -1.774475332852274 L 5.463281127511559 -1.449805363901402 L 5.537560836750463 -1.4125339448875909 L 5.788229703415192 -1.737482520791224 Z" fill="#eed9cb" transform="matrix(1,0,0,1,0,0)" fill-rule="nonzero"></path></g><g clip-path="url(#b56195fb7-4234-4097-9791-97b52e8b6aa567249a3c-1843-4ef0-a30c-840793f45219)"><path d=" M 5.874907422051962 -0.4041160793689853 L 5.768340262620861 -0.3673863960966539 L 5.394186603226819 -1.450997182532657 L 5.50055254652537 -1.487541127836481 Z" fill="#eed9cb" transform="matrix(1,0,0,1,0,0)" fill-rule="nonzero"></path></g><g clip-path="url(#b56195fb7-4234-4097-9791-97b52e8b6aa567249a3c-1843-4ef0-a30c-840793f45219)"><path d=" M 4.572249658089607 -0.6235190546683089 L 4.247316560350017 -0.6235190546683089 L 4.247316560350017 -0.7348844449525158 L 4.572249658089607 -0.7348844449525158 Z" fill="#eed9cb" transform="matrix(1,0,0,1,0,0)" fill-rule="nonzero"></path></g><g clip-path="url(#b56195fb7-4234-4097-9791-97b52e8b6aa567249a3c-1843-4ef0-a30c-840793f45219)"><path d=" M 3.057881566356943 -2.191642810119813 C 3.064258569942363 -2.2487108009437007 3.121713514867307 -2.3644255553237885 3.212910857404423 -2.5302740830368218 C 3.2477831609916805 -2.59345594865741 3.2606455153108156 -2.6447041498014006 3.225479126606755 -2.6853033740843015 C 3.086361388194739 -2.8465239307486936 2.937631709912467 -2.9954548251635145 2.937631709912467 -2.9954548251635145 C 2.937631709912467 -2.9954548251635145 2.8835200484206553 -3.0478948449387606 2.8491120897546662 -3.0080230943658464 C 2.7929727887733153 -2.9432005433567765 2.860302802357235 -2.8992580356407425 2.860302802357235 -2.8992580356407425 C 2.860302802357235 -2.8992580356407425 3.0984962688038866 -2.6577367639250005 3.11799875549716 -2.618793703194623 C 3.124298368262368 -2.606209955828249 2.9957212595631453 -2.375523398942103 2.9814813486442477 -2.3569341239273243 C 2.956592460864261 -2.324553804750874 2.9310689683585407 -2.330946286500336 2.9028522753094634 -2.330946286500336 L 2.742746146456116 -2.328345954941233 C 2.7145294534070388 -2.328345954941233 2.6814061823565587 -2.315127602849125 2.666717404680435 -2.347678181830041 C 2.651533325754958 -2.3810800598332817 2.5333265869640633 -2.5929916037361416 2.545337642260873 -2.6093675012928745 C 2.5802254240121725 -2.6568080740824636 2.8151684760099456 -2.9072138119584743 2.8151684760099456 -2.9072138119584743 C 2.8151684760099456 -2.9072138119584743 2.873536632613385 -2.9369009305915683 2.817381853467992 -3.00173895976468 C 2.782881025817749 -3.0416107103375944 2.7221137537877564 -2.9922972796988896 2.7221137537877564 -2.9922972796988896 C 2.7221137537877564 -2.9922972796988896 2.605656047533639 -2.850594687891813 2.456833500267114 -2.6884454413848844 C 2.414268549150843 -2.6422895562108044 2.407984414549677 -2.5955764571312026 2.4346378130304838 -2.539715763102613 C 2.5085460463323725 -2.3845007340866258 2.58530226181804 -2.2247506030062505 2.5958428915308334 -2.182108261069768 L 2.630730673282133 -1.6917755023743697 L 2.6814990513408126 -0.3467694815923368 C 2.6814990513408126 -0.3467694815923368 2.7027815268989483 -0.29405085486432947 2.7748323805157633 -0.29756439810192736 C 2.8527185019765176 -0.3014339391124974 2.8505051245184716 -0.3696152517187423 2.8505051245184716 -0.3696152517187423 L 2.896475271724044 -1.4923548368536301 L 3.11799875549716 -1.2425217910471835 L 2.84587715346983 -1.1254140019032908 C 2.84587715346983 -1.1254140019032908 2.822009824516633 -1.0230259467636065 2.8364354734040385 -0.9546743743528965 C 2.8364354734040385 -0.9546743743528965 3.029494613503401 -1.0442929441576996 3.2318716083562165 -1.128648938188127 C 3.3457289830512305 -1.176012120157505 3.31334866387478 -1.2837710982198607 3.2833829382889257 -1.3246644076195653 C 3.207168458544737 -1.4287241044758157 3.045204950006316 -1.7076870550098342 3.045204950006316 -1.7076870550098342 Z" fill="#876a57" transform="matrix(1,0,0,1,0,0)" fill-rule="nonzero"></path></g><g clip-path="url(#b56195fb7-4234-4097-9791-97b52e8b6aa567249a3c-1843-4ef0-a30c-840793f45219)"><path d=" M 2.6779855081032147 -2.551092213673689 C 2.6779855081032147 -2.640540523674027 2.7474515083249686 -2.712869984243603 2.833386275087709 -2.712869984243603 C 2.9192126947021535 -2.712869984243603 2.9888644328924148 -2.640540523674027 2.9888644328924148 -2.551092213673689 C 2.9888644328924148 -2.461643903673351 2.9192126947021535 -2.389314443103775 2.833386275087709 -2.389314443103775 C 2.7474515083249686 -2.389314443103775 2.6779855081032147 -2.461643903673351 2.6779855081032147 -2.551092213673689" fill="#876a57" transform="matrix(1,0,0,1,0,0)" fill-rule="nonzero"></path></g></g><g><path d=" M 0.4035 1.188 L 0.1485 0.28049999999999997 L 0.0285 0.28049999999999997 L 0.0285 0.020999999999999908 L 0.681 0.020999999999999908 L 0.681 0.28049999999999997 L 0.5700000000000001 0.28049999999999997 L 0.687 0.696 L 0.8775000000000001 0.020999999999999908 L 1.1775 0.020999999999999908 L 1.362 0.6735 L 1.476 0.28049999999999997 L 1.374 0.28049999999999997 L 1.374 0.020999999999999908 L 1.857 0.020999999999999908 L 1.857 0.28049999999999997 L 1.734 0.28049999999999997 L 1.4835 1.188 L 1.086 1.188 L 0.9450000000000001 0.6705 L 0.7965 1.188 L 0.4035 1.188 M 2.210285888671875 1.131 Q 2.077535888671875 1.053 2.008535888671875 0.91575 Q 1.939535888671875 0.7785 1.939535888671875 0.603 Q 1.939535888671875 0.4214999999999999 2.008535888671875 0.2849999999999999 Q 2.077535888671875 0.14849999999999985 2.209535888671875 0.07424999999999993 Q 2.341535888671875 0 2.526035888671875 0 Q 2.710535888671875 0 2.842535888671875 0.07424999999999993 Q 2.974535888671875 0.14849999999999985 3.043535888671875 0.2849999999999999 Q 3.112535888671875 0.4214999999999999 3.112535888671875 0.603 Q 3.112535888671875 0.7785 3.043535888671875 0.91575 Q 2.974535888671875 1.053 2.841785888671875 1.131 Q 2.709035888671875 1.2089999999999999 2.526035888671875 1.2089999999999999 Q 2.343035888671875 1.2089999999999999 2.210285888671875 1.131 M 2.647535888671875 0.8534999999999999 Q 2.689535888671875 0.7575 2.689535888671875 0.597 Q 2.689535888671875 0.44099999999999995 2.6490358886718752 0.35024999999999995 Q 2.608535888671875 0.25949999999999995 2.526035888671875 0.25949999999999995 Q 2.443535888671875 0.25949999999999995 2.403035888671875 0.35024999999999995 Q 2.362535888671875 0.44099999999999995 2.362535888671875 0.597 Q 2.362535888671875 0.7575 2.404535888671875 0.8534999999999999 Q 2.446535888671875 0.9494999999999999 2.526035888671875 0.9494999999999999 Q 2.605535888671875 0.9494999999999999 2.647535888671875 0.8534999999999999 M 3.291063720703125 0.9299999999999999 L 3.408063720703125 0.9299999999999999 L 3.408063720703125 0.28049999999999997 L 3.291063720703125 0.28049999999999997 L 3.291063720703125 0.022499999999999964 L 4.039563720703125 0.022499999999999964 Q 4.221063720703125 0.022499999999999964 4.306563720703125 0.09599999999999986 Q 4.392063720703125 0.16949999999999998 4.392063720703125 0.33899999999999997 Q 4.392063720703125 0.45299999999999996 4.328313720703125 0.5145 Q 4.264563720703125 0.576 4.1475637207031255 0.597 Q 4.252563720703125 0.6134999999999999 4.299063720703125 0.67575 Q 4.345563720703125 0.738 4.345563720703125 0.831 L 4.345563720703125 0.9255 L 4.509063720703125 0.9255 L 4.509063720703125 1.188 L 4.273563720703125 1.188 Q 4.159563720703125 1.188 4.110063720703125 1.173 Q 4.060563720703125 1.158 4.034313720703125 1.0905 Q 4.008063720703125 1.023 4.008063720703125 0.8654999999999999 Q 4.008063720703125 0.7754999999999999 3.978813720703125 0.732 Q 3.949563720703125 0.6884999999999999 3.871563720703125 0.6884999999999999 L 3.783063720703125 0.6884999999999999 L 3.783063720703125 0.9299999999999999 L 3.900063720703125 0.9299999999999999 L 3.900063720703125 1.188 L 3.291063720703125 1.188 L 3.291063720703125 0.9299999999999999 M 3.8835637207031253 0.5219999999999999 Q 3.963063720703125 0.5219999999999999 4.002063720703125 0.49349999999999994 Q 4.041063720703125 0.46499999999999997 4.041063720703125 0.3929999999999999 Q 4.041063720703125 0.3404999999999999 4.001313720703125 0.3104999999999999 Q 3.961563720703125 0.28049999999999997 3.898563720703125 0.28049999999999997 L 3.783063720703125 0.28049999999999997 L 3.783063720703125 0.5219999999999999 L 3.8835637207031253 0.5219999999999999 M 4.594591552734375 0.9299999999999999 L 4.711591552734375 0.9299999999999999 L 4.711591552734375 0.28049999999999997 L 4.594591552734375 0.28049999999999997 L 4.594591552734375 0.022499999999999964 L 5.179591552734375 0.022499999999999964 L 5.179591552734375 0.28049999999999997 L 5.086591552734375 0.28049999999999997 L 5.086591552734375 0.5459999999999999 L 5.280091552734375 0.28049999999999997 L 5.280091552734375 0.022499999999999964 L 5.736091552734375 0.022499999999999964 L 5.736091552734375 0.28049999999999997 L 5.635591552734375 0.28049999999999997 L 5.4030915527343755 0.5624999999999999 L 5.4030915527343755 0.573 Q 5.521591552734375 0.573 5.589091552734375 0.6134999999999999 Q 5.656591552734375 0.6539999999999999 5.656591552734375 0.7545 L 5.656591552734375 0.873 Q 5.656591552734375 0.8955 5.669341552734375 0.91275 Q 5.682091552734375 0.9299999999999999 5.704591552734375 0.9299999999999999 L 5.788591552734375 0.9299999999999999 L 5.788591552734375 1.188 L 5.520091552734375 1.188 Q 5.274091552734375 1.188 5.274091552734375 0.963 L 5.274091552734375 0.8354999999999999 Q 5.274091552734375 0.7979999999999999 5.250091552734375 0.762 Q 5.226091552734375 0.726 5.193091552734375 0.726 L 5.086591552734375 0.726 L 5.086591552734375 0.9299999999999999 L 5.203591552734375 0.9299999999999999 L 5.203591552734375 1.188 L 4.594591552734375 1.188 L 4.594591552734375 0.9299999999999999 M 6.2325615234375 1.188 L 6.2325615234375 0.9299999999999999 L 6.3495615234375 0.9299999999999999 L 6.3495615234375 0.28049999999999997 L 6.2325615234375 0.28049999999999997 L 6.2325615234375 0.022499999999999964 L 6.8415615234375 0.022499999999999964 L 6.8415615234375 0.28049999999999997 L 6.7245615234375 0.28049999999999997 L 6.7245615234375 0.9299999999999999 L 6.8415615234375 0.9299999999999999 L 6.8415615234375 1.188 L 6.2325615234375 1.188 M 7.158082763671875 1.188 L 7.158082763671875 0.9239999999999999 L 7.2780827636718755 0.9239999999999999 L 7.2780827636718755 0.28049999999999997 L 7.174582763671875 0.28049999999999997 L 7.143082763671875 0.48149999999999993 L 6.937582763671875 0.48149999999999993 L 6.937582763671875 0.022499999999999964 L 8.034082763671876 0.022499999999999964 L 8.034082763671876 0.48149999999999993 L 7.828582763671875 0.48149999999999993 L 7.797082763671875 0.28049999999999997 L 7.690582763671875 0.28049999999999997 L 7.690582763671875 0.9239999999999999 L 7.810582763671875 0.9239999999999999 L 7.810582763671875 1.188 L 7.158082763671875 1.188 M 8.715840087890625 1.131 Q 8.583090087890625 1.053 8.514090087890626 0.91575 Q 8.445090087890625 0.7785 8.445090087890625 0.603 Q 8.445090087890625 0.4214999999999999 8.514090087890626 0.2849999999999999 Q 8.583090087890625 0.14849999999999985 8.715090087890625 0.07424999999999993 Q 8.847090087890624 0 9.031590087890624 0 Q 9.216090087890626 0 9.348090087890625 0.07424999999999993 Q 9.480090087890625 0.14849999999999985 9.549090087890626 0.2849999999999999 Q 9.618090087890625 0.4214999999999999 9.618090087890625 0.603 Q 9.618090087890625 0.7785 9.549090087890626 0.91575 Q 9.480090087890625 1.053 9.347340087890625 1.131 Q 9.214590087890626 1.2089999999999999 9.031590087890624 1.2089999999999999 Q 8.848590087890624 1.2089999999999999 8.715840087890625 1.131 M 9.153090087890625 0.8534999999999999 Q 9.195090087890625 0.7575 9.195090087890625 0.597 Q 9.195090087890625 0.44099999999999995 9.154590087890625 0.35024999999999995 Q 9.114090087890625 0.25949999999999995 9.031590087890624 0.25949999999999995 Q 8.949090087890625 0.25949999999999995 8.908590087890625 0.35024999999999995 Q 8.868090087890625 0.44099999999999995 8.868090087890625 0.597 Q 8.868090087890625 0.7575 8.910090087890625 0.8534999999999999 Q 8.952090087890625 0.9494999999999999 9.031590087890624 0.9494999999999999 Q 9.111090087890625 0.9494999999999999 9.153090087890625 0.8534999999999999 M 9.965367919921874 1.0725 Q 9.850617919921875 0.9359999999999999 9.850617919921875 0.6719999999999999 L 9.850617919921875 0.28049999999999997 L 9.732117919921874 0.28049999999999997 L 9.732117919921874 0.022499999999999964 L 10.368117919921875 0.022499999999999964 L 10.368117919921875 0.28049999999999997 L 10.260117919921875 0.28049999999999997 L 10.260117919921875 0.7709999999999999 Q 10.260117919921875 0.843 10.295367919921874 0.8887499999999999 Q 10.330617919921876 0.9344999999999999 10.405617919921875 0.9344999999999999 Q 10.468617919921876 0.9344999999999999 10.505367919921875 0.897 Q 10.542117919921875 0.8594999999999999 10.542117919921875 0.7949999999999999 L 10.542117919921875 0.28049999999999997 L 10.422117919921876 0.28049999999999997 L 10.422117919921876 0.022499999999999964 L 10.900617919921874 0.022499999999999964 L 10.900617919921874 0.28049999999999997 L 10.788117919921875 0.28049999999999997 L 10.788117919921875 0.7845 Q 10.788117919921875 0.9944999999999999 10.665117919921874 1.10175 Q 10.542117919921875 1.2089999999999999 10.341117919921874 1.2089999999999999 Q 10.080117919921875 1.2089999999999999 9.965367919921874 1.0725 M 11.20810107421875 1.188 L 11.20810107421875 0.9239999999999999 L 11.32810107421875 0.9239999999999999 L 11.32810107421875 0.28049999999999997 L 11.22460107421875 0.28049999999999997 L 11.19310107421875 0.48149999999999993 L 10.98760107421875 0.48149999999999993 L 10.98760107421875 0.022499999999999964 L 12.08410107421875 0.022499999999999964 L 12.08410107421875 0.48149999999999993 L 11.87860107421875 0.48149999999999993 L 11.84710107421875 0.28049999999999997 L 11.74060107421875 0.28049999999999997 L 11.74060107421875 0.9239999999999999 L 11.86060107421875 0.9239999999999999 L 11.86060107421875 1.188 L 11.20810107421875 1.188" fill="#ffc632" fill-rule="nonzero"></path></g><g><path d=" M 0.29367256334529057 1.6236035937735775 Q 0.20611801029824744 1.6236035937735775 0.1776627805579584 1.6566189564850666 Q 0.14920755081766937 1.689634319196556 0.14920755081766937 1.7308579212562054 Q 0.14920755081766937 1.7662445531127187 0.17383226886215028 1.7879507860556314 Q 0.19845698690663116 1.8096570189985441 0.24734161235789692 1.8216957700425127 L 0.3520422653766527 1.8475973253189295 Q 0.4239099610027673 1.8654730465660343 0.46914648007707294 1.9061494326691397 Q 0.5143829991513785 1.9468258187722451 0.5143829991513785 2.0332859399062 Q 0.5143829991513785 2.1277718950694675 0.43959681842369586 2.168995497129117 Q 0.36481063769601313 2.210219099188767 0.2692302506196577 2.210219099188767 Q 0.23056032302388033 2.210219099188767 0.19006634223962285 2.2000044013332785 Q 0.1495723614553654 2.18978970347779 0.11455054023654813 2.1657122013898533 Q 0.11309129768576408 2.1781157630715176 0.10688951684493185 2.193802620492446 Q 0.10068773600409964 2.2094894779133747 0.08828417432243518 2.2094894779133747 Q 0.07515099136537871 2.2094894779133747 0.06712515733606642 2.2040173183479346 Q 0.05909932330675413 2.1985451587824945 0.05764008075597008 2.18614159710083 L 0.03684587440729733 2.0051955208036074 Q 0.03684587440729733 1.9906030952957667 0.04560132971200164 1.9834892878606944 Q 0.05435678501670596 1.9763754804256224 0.07186769562611459 1.9763754804256224 Q 0.08281201475699498 1.9763754804256224 0.09120265942400328 1.9827596665853024 Q 0.0995933040910116 1.9891438527449827 0.10105254664179564 2.000088171875863 L 0.10688951684493185 2.050796850515609 Q 0.11053762322189199 2.0847242398213384 0.15723338484698168 2.1151859280689553 Q 0.20392914647207136 2.1456476163165723 0.2601099846772574 2.1456476163165723 Q 0.32249260372327565 2.1456476163165723 0.38104471107348575 2.1233941674171155 Q 0.43959681842369586 2.1011407185176587 0.43959681842369586 2.0329211292685043 Q 0.43959681842369586 1.9836716931795426 0.4098647514514708 1.9643367293816538 Q 0.3801326844792457 1.9450017655837653 0.3392738930572922 1.9333278251774928 L 0.21961600389299993 1.8994004358717635 Q 0.15431489974541357 1.884808010363923 0.11144964981613202 1.8474149200000816 Q 0.06858439988685047 1.8100218296362403 0.06858439988685047 1.7366948914593416 Q 0.06858439988685047 1.6568013618039148 0.13114942425171672 1.6113824374107613 Q 0.193714448616583 1.5659635130176075 0.2816338123013222 1.5659635130176075 Q 0.31957411862170754 1.5659635130176075 0.35952088344942096 1.5754485895977037 Q 0.3994676482771344 1.5849336661778002 0.42573401419124735 1.6068223044395609 Q 0.42573401419124735 1.5915002576563284 0.4354014960901917 1.578914290655816 Q 0.445068977989136 1.5663283236553034 0.4600262141346726 1.5663283236553034 Q 0.470970533265553 1.5663283236553034 0.4793611779325613 1.5728949151338316 Q 0.48775182259956956 1.5794615066123598 0.4892110651503536 1.5904058257432405 L 0.49176473961422573 1.7352356489085576 Q 0.49176473961422573 1.7509225063294862 0.4822796630341294 1.7580363137645585 Q 0.47279458645403305 1.7651501211996306 0.45820216094619254 1.7651501211996306 Q 0.4454337886268321 1.7651501211996306 0.43722554927867174 1.7596779616341904 Q 0.42901730993051146 1.7542058020687503 0.4275580673797274 1.7421670510247818 L 0.42609882482894335 1.6998490170520442 Q 0.4213562865388952 1.658625414992395 0.38086230575463775 1.6411145043829862 Q 0.3403683249703803 1.6236035937735775 0.29367256334529057 1.6236035937735775 L 0.29367256334529057 1.6236035937735775 M 0.5889867745602133 1.7684334169388949 Q 0.5769480235162449 1.7684334169388949 0.5705638373565646 1.7604075829095824 Q 0.5641796511968844 1.7523817488802702 0.5641796511968844 1.7392485659232138 L 0.5696518107623246 1.603539008700297 Q 0.5700166214000206 1.5893113938301524 0.5747591596900687 1.58219758639508 Q 0.579501697980117 1.5750837789600078 0.5919052596617814 1.5750837789600078 L 1.1179621992194324 1.5750837789600078 Q 1.1296361396257049 1.5750837789600078 1.134743488553449 1.582379991713928 Q 1.1398508374811933 1.5896762044678483 1.1402156481188892 1.603539008700297 L 1.1456878076843293 1.7392485659232138 Q 1.1456878076843293 1.7523817488802702 1.139303621524649 1.7604075829095824 Q 1.1329194353649688 1.7684334169388949 1.1208806843210004 1.7684334169388949 Q 1.1081123120016398 1.7684334169388949 1.1002688832911756 1.7629612573734545 Q 1.0924254545807115 1.7574890978080144 1.0909662120299273 1.7439911042132619 L 1.079657082261351 1.6392904511945061 L 0.8936036570363843 1.6392904511945061 L 0.8936036570363843 2.136162539736476 L 0.9902784760258277 2.136162539736476 Q 1.0041412802582763 2.136162539736476 1.0101606557802605 2.1461948322731166 Q 1.0161800313022447 2.1562271248097566 1.0161800313022447 2.1697251184045094 Q 1.0161800313022447 2.1817638694484778 1.0092486291860205 2.191066540709726 Q 1.0023172270697962 2.2003692119709743 0.9895488547504357 2.2003692119709743 L 0.7130223913768577 2.2003692119709743 Q 0.7002540190574973 2.2003692119709743 0.693140211622425 2.191066540709726 Q 0.6860264041873527 2.1817638694484778 0.6860264041873527 2.1697251184045094 Q 0.6860264041873527 2.1562271248097566 0.6922281850281851 2.1461948322731166 Q 0.6984299658690172 2.136162539736476 0.7122927701014657 2.136162539736476 L 0.8086027784532133 2.136162539736476 L 0.8086027784532133 1.6392904511945061 L 0.6298455659821668 1.6392904511945061 L 0.6189012468512863 1.7439911042132619 Q 0.6174420043005023 1.7578539084457103 0.609598575590038 1.7631436626923027 Q 0.6017551468795738 1.7684334169388949 0.5889867745602133 1.7684334169388949 L 0.5889867745602133 1.7684334169388949 M 1.1586385853225378 2.1697251184045094 Q 1.1586385853225378 2.1562271248097566 1.16484036616337 2.1461948322731166 Q 1.1710421470042023 2.136162539736476 1.1849049512366507 2.136162539736476 L 1.2356136298763967 2.136162539736476 L 1.4771182720311573 1.5907706363809364 Q 1.4825904315965976 1.5780022640615758 1.4935347507274779 1.5676051608872394 Q 1.5044790698583583 1.557208057712903 1.521989980467767 1.557208057712903 Q 1.5402305123525677 1.557208057712903 1.5498979942515119 1.5679699715249356 Q 1.5595654761504563 1.578731885336968 1.5650376357158966 1.5922298789317204 L 1.7842888289712002 2.136162539736476 L 1.8492251224810907 2.136162539736476 Q 1.8630879267135392 2.136162539736476 1.8691073022355233 2.1461948322731166 Q 1.8751266777575077 2.1562271248097566 1.8751266777575077 2.1697251184045094 Q 1.8751266777575077 2.1817638694484778 1.8681952756412834 2.191066540709726 Q 1.861263873525059 2.2003692119709743 1.8484955012056987 2.2003692119709743 L 1.6131926398917702 2.2003692119709743 Q 1.6004242675724099 2.2003692119709743 1.5933104601373376 2.191066540709726 Q 1.5861966527022653 2.1817638694484778 1.5861966527022653 2.1697251184045094 Q 1.5861966527022653 2.1562271248097566 1.5923984335430974 2.1461948322731166 Q 1.5986002143839297 2.136162539736476 1.6124630186163782 2.136162539736476 L 1.692356548271805 2.136162539736476 L 1.6383645738927952 1.993521580397335 L 1.3738768615631856 1.993521580397335 L 1.3166015914449116 2.136162539736476 L 1.38445637005637 2.136162539736476 Q 1.3983191742888184 2.136162539736476 1.4045209551296507 2.1461948322731166 Q 1.410722735970483 2.1562271248097566 1.410722735970483 2.1697251184045094 Q 1.410722735970483 2.1817638694484778 1.4036089285354107 2.191066540709726 Q 1.3964951211003385 2.2003692119709743 1.383726748780978 2.2003692119709743 L 1.1856345725120427 2.2003692119709743 Q 1.1728662001926824 2.2003692119709743 1.1657523927576101 2.191066540709726 Q 1.1586385853225378 2.1817638694484778 1.1586385853225378 2.1697251184045094 L 1.1586385853225378 2.1697251184045094 M 1.3964951211003385 1.937340742192149 L 1.6175703675441224 1.937340742192149 L 1.5106808506991904 1.6535180660646507 L 1.3964951211003385 1.937340742192149 M 2.518835047972123 1.6057278725264728 Q 2.518835047972123 1.6192258661212255 2.5126332671312905 1.6292581586578656 Q 2.506431486290458 1.6392904511945061 2.49256868205801 1.6392904511945061 L 2.441860003418264 1.6392904511945061 L 2.2605491164833453 1.936611120916757 L 2.2605491164833453 2.136162539736476 L 2.3419018886895566 2.136162539736476 Q 2.355764692922005 2.136162539736476 2.3617840684439892 2.1461948322731166 Q 2.367803443965973 2.1562271248097566 2.367803443965973 2.1697251184045094 Q 2.367803443965973 2.1817638694484778 2.360872041849749 2.191066540709726 Q 2.353940639733525 2.2003692119709743 2.3411722674141644 2.2003692119709743 L 2.079603040186123 2.2003692119709743 Q 2.0668346678667624 2.2003692119709743 2.0597208604316903 2.191066540709726 Q 2.052607052996618 2.1817638694484778 2.052607052996618 2.1697251184045094 Q 2.052607052996618 2.1562271248097566 2.05880883383745 2.1461948322731166 Q 2.0650106146782825 2.136162539736476 2.0788734189107307 2.136162539736476 L 2.1751834272624784 2.136162539736476 L 2.1751834272624784 1.9307741507136207 L 2.0018983743568723 1.6392904511945061 L 1.9249233298030133 1.6392904511945061 Q 1.9110605255705648 1.6392904511945061 1.9048587447297327 1.6292581586578656 Q 1.8986569638889004 1.6192258661212255 1.8986569638889004 1.6057278725264728 Q 1.8986569638889004 1.5936891214825044 1.9057707713239727 1.5843864502212561 Q 1.912884578759045 1.5750837789600078 1.9256529510784053 1.5750837789600078 L 2.1423504698698372 1.5750837789600078 Q 2.155118842189198 1.5750837789600078 2.16223264962427 1.5843864502212561 Q 2.1693464570593424 1.5936891214825044 2.1693464570593424 1.6057278725264728 Q 2.1693464570593424 1.6192258661212255 2.16314467621851 1.6292581586578656 Q 2.1569428953776777 1.6392904511945061 2.1430800911452295 1.6392904511945061 L 2.0916417912300913 1.6392904511945061 L 2.2320938867430566 1.8753229337838266 L 2.3710867397052375 1.6392904511945061 L 2.3119874163984835 1.6392904511945061 Q 2.298124612166035 1.6392904511945061 2.2919228313252025 1.6292581586578656 Q 2.28572105048437 1.6192258661212255 2.28572105048437 1.6057278725264728 Q 2.28572105048437 1.5936891214825044 2.2928348579194426 1.5843864502212561 Q 2.2999486653545147 1.5750837789600078 2.3127170376738753 1.5750837789600078 L 2.4918390607826177 1.5750837789600078 Q 2.5046074331019783 1.5750837789600078 2.5117212405370504 1.5843864502212561 Q 2.518835047972123 1.5936891214825044 2.518835047972123 1.6057278725264728 L 2.518835047972123 1.6057278725264728 M 3.0660510045161424 2.2003692119709743 Q 3.0788193768355026 2.2003692119709743 3.085933184270575 2.191066540709726 Q 3.093046991705647 2.1817638694484778 3.093046991705647 2.1697251184045094 Q 3.093046991705647 2.1562271248097566 3.086845210864815 2.1461948322731166 Q 3.080643430023983 2.136162539736476 3.066780625791534 2.136162539736476 L 2.9555133812942502 2.136162539736476 L 2.9555133812942502 1.9143576720173001 L 3.0795489981108948 1.9143576720173001 L 3.0981543406333913 1.9822124506287584 Q 3.1010728257349593 1.9924271484842468 3.1085514438077277 1.999723361238167 Q 3.116030061880496 2.0070195739920873 3.1273391916490723 2.0070195739920873 Q 3.139742753330737 2.0070195739920873 3.146309344809265 1.9988113346439271 Q 3.1528759362877934 1.9906030952957667 3.1528759362877934 1.9778347229764064 L 3.147768587360049 1.886632063552403 L 3.1528759362877934 1.7983478892299678 Q 3.1528759362877934 1.7855795169106075 3.146309344809265 1.777371277562447 Q 3.139742753330737 1.7691630382142867 3.1273391916490723 1.7691630382142867 Q 3.116030061880496 1.7691630382142867 3.1085514438077277 1.7764592509682071 Q 3.1010728257349593 1.7837554637221273 3.0981543406333913 1.7939701615776156 L 3.0795489981108948 1.861824940189074 L 2.9555133812942502 1.861824940189074 L 2.9555133812942502 1.6392904511945061 L 3.2747226892782617 1.6392904511945061 L 3.306826025395511 1.7326819744446855 Q 3.311568563685559 1.7439911042132619 3.3210536402656556 1.7521993435614223 Q 3.330538716845752 1.7604075829095824 3.344036710440504 1.7604075829095824 Q 3.3557106508467767 1.7604075829095824 3.363371674238393 1.7529289648368143 Q 3.3710326976300093 1.7454503467640459 3.3710326976300093 1.7334115957200775 Q 3.3710326976300093 1.7304931106185095 3.370485481673465 1.7268450042415493 Q 3.3699382657169212 1.723196897864589 3.368843833803833 1.719183980849933 L 3.341118225338936 1.603539008700297 Q 3.336740497686584 1.5907706363809364 3.330538716845752 1.5829272076704721 Q 3.3243369360049195 1.5750837789600078 3.311203753047863 1.5750837789600078 L 2.782228328388644 1.5750837789600078 Q 2.7694599560692836 1.5750837789600078 2.762346148634211 1.5843864502212561 Q 2.755232341199139 1.5936891214825044 2.755232341199139 1.6057278725264728 Q 2.755232341199139 1.6192258661212255 2.7614341220399714 1.6292581586578656 Q 2.7676359028808033 1.6392904511945061 2.781498707113252 1.6392904511945061 L 2.870512502711079 1.6392904511945061 L 2.870512502711079 2.136162539736476 L 2.751584234822179 2.136162539736476 Q 2.7377214305897306 2.136162539736476 2.7315196497488983 2.1461948322731166 Q 2.725317868908066 2.1562271248097566 2.725317868908066 2.1697251184045094 Q 2.725317868908066 2.1817638694484778 2.732431676343138 2.191066540709726 Q 2.7395454837782105 2.2003692119709743 2.752313856097571 2.2003692119709743 L 3.0660510045161424 2.2003692119709743 M 3.389820445471354 2.1697251184045094 Q 3.389820445471354 2.1562271248097566 3.395839820993338 2.1461948322731166 Q 3.401859196515322 2.136162539736476 3.4157220007477704 2.136162539736476 L 3.5047357963455976 2.136162539736476 L 3.5047357963455976 1.6392904511945061 L 3.4157220007477704 1.6392904511945061 Q 3.401859196515322 1.6392904511945061 3.395839820993338 1.6292581586578656 Q 3.389820445471354 1.6192258661212255 3.389820445471354 1.6057278725264728 Q 3.389820445471354 1.5936891214825044 3.396751847587578 1.5843864502212561 Q 3.403683249703802 1.5750837789600078 3.4164516220231627 1.5750837789600078 L 3.678020849251204 1.5750837789600078 Q 3.6907892215705647 1.5750837789600078 3.6979030290056367 1.5843864502212561 Q 3.7050168364407092 1.5936891214825044 3.7050168364407092 1.6057278725264728 Q 3.7050168364407092 1.6192258661212255 3.698815055599877 1.6292581586578656 Q 3.6926132747590446 1.6392904511945061 3.6787504705265963 1.6392904511945061 L 3.590101485566465 1.6392904511945061 L 3.590101485566465 2.136162539736476 L 3.6787504705265963 2.136162539736476 Q 3.6926132747590446 2.136162539736476 3.698815055599877 2.1461948322731166 Q 3.7050168364407092 2.1562271248097566 3.7050168364407092 2.1697251184045094 Q 3.7050168364407092 2.1817638694484778 3.6979030290056367 2.191066540709726 Q 3.6907892215705647 2.2003692119709743 3.678020849251204 2.2003692119709743 L 3.4164516220231627 2.2003692119709743 Q 3.403683249703802 2.2003692119709743 3.396751847587578 2.191066540709726 Q 3.389820445471354 2.1817638694484778 3.389820445471354 2.1697251184045094 L 3.389820445471354 2.1697251184045094 M 3.7683114820809673 1.7684334169388949 Q 3.756272731036999 1.7684334169388949 3.7498885448773187 1.7604075829095824 Q 3.7435043587176384 1.7523817488802702 3.7435043587176384 1.7392485659232138 L 3.748976518283079 1.603539008700297 Q 3.749341328920775 1.5893113938301524 3.754083867210823 1.58219758639508 Q 3.758826405500871 1.5750837789600078 3.771229967182536 1.5750837789600078 L 4.297286906740187 1.5750837789600078 Q 4.308960847146459 1.5750837789600078 4.314068196074203 1.582379991713928 Q 4.319175545001947 1.5896762044678483 4.319540355639644 1.603539008700297 L 4.325012515205083 1.7392485659232138 Q 4.325012515205083 1.7523817488802702 4.318628329045404 1.7604075829095824 Q 4.312244142885723 1.7684334169388949 4.300205391841755 1.7684334169388949 Q 4.287437019522394 1.7684334169388949 4.27959359081193 1.7629612573734545 Q 4.2717501621014655 1.7574890978080144 4.270290919550682 1.7439911042132619 L 4.258981789782105 1.6392904511945061 L 4.072928364557138 1.6392904511945061 L 4.072928364557138 2.136162539736476 L 4.169603183546582 2.136162539736476 Q 4.18346598777903 2.136162539736476 4.1894853633010145 2.1461948322731166 Q 4.195504738822999 2.1562271248097566 4.195504738822999 2.1697251184045094 Q 4.195504738822999 2.1817638694484778 4.188573336706774 2.191066540709726 Q 4.181641934590551 2.2003692119709743 4.16887356227119 2.2003692119709743 L 3.892347098897612 2.2003692119709743 Q 3.8795787265782513 2.2003692119709743 3.8724649191431793 2.191066540709726 Q 3.865351111708107 2.1817638694484778 3.865351111708107 2.1697251184045094 Q 3.865351111708107 2.1562271248097566 3.871552892548939 2.1461948322731166 Q 3.8777546733897714 2.136162539736476 3.89161747762222 2.136162539736476 L 3.9879274859739673 2.136162539736476 L 3.9879274859739673 1.6392904511945061 L 3.809170273502921 1.6392904511945061 L 3.7982259543720405 1.7439911042132619 Q 3.7967667118212565 1.7578539084457103 3.788923283110792 1.7631436626923027 Q 3.781079854400328 1.7684334169388949 3.7683114820809673 1.7684334169388949 L 3.7683114820809673 1.7684334169388949 M 4.802184829311469 1.6236035937735775 Q 4.714630276264426 1.6236035937735775 4.686175046524137 1.6566189564850666 Q 4.657719816783848 1.689634319196556 4.657719816783848 1.7308579212562054 Q 4.657719816783848 1.7662445531127187 4.682344534828329 1.7879507860556314 Q 4.70696925287281 1.8096570189985441 4.755853878324076 1.8216957700425127 L 4.8605545313428316 1.8475973253189295 Q 4.932422226968946 1.8654730465660343 4.977658746043251 1.9061494326691397 Q 5.022895265117557 1.9468258187722451 5.022895265117557 2.0332859399062 Q 5.022895265117557 2.1277718950694675 4.948109084389874 2.168995497129117 Q 4.873322903662191 2.210219099188767 4.777742516585836 2.210219099188767 Q 4.739072588990059 2.210219099188767 4.698578608205802 2.2000044013332785 Q 4.658084627421544 2.18978970347779 4.623062806202727 2.1657122013898533 Q 4.621603563651942 2.1781157630715176 4.6154017828111105 2.193802620492446 Q 4.609200001970278 2.2094894779133747 4.596796440288614 2.2094894779133747 Q 4.583663257331557 2.2094894779133747 4.575637423302245 2.2040173183479346 Q 4.567611589272933 2.1985451587824945 4.5661523467221485 2.18614159710083 L 4.545358140373476 2.0051955208036074 Q 4.545358140373476 1.9906030952957667 4.55411359567818 1.9834892878606944 Q 4.562869050982885 1.9763754804256224 4.580379961592293 1.9763754804256224 Q 4.591324280723174 1.9763754804256224 4.599714925390182 1.9827596665853024 Q 4.60810557005719 1.9891438527449827 4.6095648126079745 2.000088171875863 L 4.6154017828111105 2.050796850515609 Q 4.61904988918807 2.0847242398213384 4.66574565081316 2.1151859280689553 Q 4.71244141243825 2.1456476163165723 4.7686222506434355 2.1456476163165723 Q 4.831004869689454 2.1456476163165723 4.889556977039664 2.1233941674171155 Q 4.948109084389874 2.1011407185176587 4.948109084389874 2.0329211292685043 Q 4.948109084389874 1.9836716931795426 4.918377017417649 1.9643367293816538 Q 4.888644950445424 1.9450017655837653 4.847786159023471 1.9333278251774928 L 4.7281282698591784 1.8994004358717635 Q 4.662827165711592 1.884808010363923 4.61996191578231 1.8474149200000816 Q 4.577096665853029 1.8100218296362403 4.577096665853029 1.7366948914593416 Q 4.577096665853029 1.6568013618039148 4.6396616902178955 1.6113824374107613 Q 4.702226714582761 1.5659635130176075 4.790146078267501 1.5659635130176075 Q 4.828086384587886 1.5659635130176075 4.8680331494155995 1.5754485895977037 Q 4.907979914243313 1.5849336661778002 4.934246280157426 1.6068223044395609 Q 4.934246280157426 1.5915002576563284 4.94391376205637 1.578914290655816 Q 4.953581243955314 1.5663283236553034 4.968538480100851 1.5663283236553034 Q 4.979482799231731 1.5663283236553034 4.9878734438987395 1.5728949151338316 Q 4.996264088565748 1.5794615066123598 4.997723331116532 1.5904058257432405 L 5.000277005580404 1.7352356489085576 Q 5.000277005580404 1.7509225063294862 4.9907919290003075 1.7580363137645585 Q 4.981306852420212 1.7651501211996306 4.966714426912371 1.7651501211996306 Q 4.95394605459301 1.7651501211996306 4.945737815244851 1.7596779616341904 Q 4.93752957589669 1.7542058020687503 4.9360703333459055 1.7421670510247818 L 4.934611090795122 1.6998490170520442 Q 4.929868552505074 1.658625414992395 4.889374571720817 1.6411145043829862 Q 4.848880590936559 1.6236035937735775 4.802184829311469 1.6236035937735775 L 4.802184829311469 1.6236035937735775 M 5.097499040526392 1.7684334169388949 Q 5.085460289482424 1.7684334169388949 5.079076103322744 1.7604075829095824 Q 5.072691917163064 1.7523817488802702 5.072691917163064 1.7392485659232138 L 5.078164076728504 1.603539008700297 Q 5.0785288873662 1.5893113938301524 5.083271425656248 1.58219758639508 Q 5.088013963946296 1.5750837789600078 5.10041752562796 1.5750837789600078 L 5.626474465185611 1.5750837789600078 Q 5.638148405591884 1.5750837789600078 5.643255754519628 1.582379991713928 Q 5.648363103447372 1.5896762044678483 5.648727914085068 1.603539008700297 L 5.654200073650508 1.7392485659232138 Q 5.654200073650508 1.7523817488802702 5.647815887490828 1.7604075829095824 Q 5.641431701331148 1.7684334169388949 5.62939295028718 1.7684334169388949 Q 5.616624577967819 1.7684334169388949 5.6087811492573545 1.7629612573734545 Q 5.600937720546891 1.7574890978080144 5.599478477996106 1.7439911042132619 L 5.58816934822753 1.6392904511945061 L 5.4021159230025635 1.6392904511945061 L 5.4021159230025635 2.136162539736476 L 5.498790741992007 2.136162539736476 Q 5.512653546224455 2.136162539736476 5.51867292174644 2.1461948322731166 Q 5.524692297268424 2.1562271248097566 5.524692297268424 2.1697251184045094 Q 5.524692297268424 2.1817638694484778 5.5177608951521995 2.191066540709726 Q 5.510829493035975 2.2003692119709743 5.498061120716614 2.2003692119709743 L 5.221534657343037 2.2003692119709743 Q 5.2087662850236764 2.2003692119709743 5.201652477588604 2.191066540709726 Q 5.194538670153531 2.1817638694484778 5.194538670153531 2.1697251184045094 Q 5.194538670153531 2.1562271248097566 5.200740450994364 2.1461948322731166 Q 5.206942231835196 2.136162539736476 5.220805036067644 2.136162539736476 L 5.317115044419392 2.136162539736476 L 5.317115044419392 1.6392904511945061 L 5.138357831948346 1.6392904511945061 L 5.127413512817466 1.7439911042132619 Q 5.125954270266681 1.7578539084457103 5.118110841556217 1.7631436626923027 Q 5.110267412845753 1.7684334169388949 5.097499040526392 1.7684334169388949 L 5.097499040526392 1.7684334169388949 M 5.667150851288717 2.1697251184045094 Q 5.667150851288717 2.1562271248097566 5.673352632129549 2.1461948322731166 Q 5.679554412970382 2.136162539736476 5.69341721720283 2.136162539736476 L 5.744125895842576 2.136162539736476 L 5.985630537997337 1.5907706363809364 Q 5.991102697562777 1.5780022640615758 6.002047016693657 1.5676051608872394 Q 6.0129913358245375 1.557208057712903 6.030502246433946 1.557208057712903 Q 6.048742778318747 1.557208057712903 6.058410260217691 1.5679699715249356 Q 6.068077742116635 1.578731885336968 6.0735499016820755 1.5922298789317204 L 6.29280109493738 2.136162539736476 L 6.35773738844727 2.136162539736476 Q 6.371600192679718 2.136162539736476 6.377619568201703 2.1461948322731166 Q 6.383638943723687 2.1562271248097566 6.383638943723687 2.1697251184045094 Q 6.383638943723687 2.1817638694484778 6.376707541607463 2.191066540709726 Q 6.369776139491239 2.2003692119709743 6.357007767171878 2.2003692119709743 L 6.12170490585795 2.2003692119709743 Q 6.108936533538589 2.2003692119709743 6.101822726103517 2.191066540709726 Q 6.094708918668444 2.1817638694484778 6.094708918668444 2.1697251184045094 Q 6.094708918668444 2.1562271248097566 6.100910699509277 2.1461948322731166 Q 6.107112480350109 2.136162539736476 6.120975284582558 2.136162539736476 L 6.200868814237984 2.136162539736476 L 6.146876839858974 1.993521580397335 L 5.882389127529365 1.993521580397335 L 5.825113857411091 2.136162539736476 L 5.892968636022549 2.136162539736476 Q 5.906831440254998 2.136162539736476 5.91303322109583 2.1461948322731166 Q 5.919235001936662 2.1562271248097566 5.919235001936662 2.1697251184045094 Q 5.919235001936662 2.1817638694484778 5.91212119450159 2.191066540709726 Q 5.905007387066518 2.2003692119709743 5.892239014747157 2.2003692119709743 L 5.694146838478222 2.2003692119709743 Q 5.681378466158861 2.2003692119709743 5.674264658723789 2.191066540709726 Q 5.667150851288717 2.1817638694484778 5.667150851288717 2.1697251184045094 L 5.667150851288717 2.1697251184045094 M 5.905007387066518 1.937340742192149 L 6.126082633510301 1.937340742192149 L 6.01919311666537 1.6535180660646507 L 5.905007387066518 1.937340742192149 M 7.027347313938303 1.6057278725264728 Q 7.027347313938303 1.6192258661212255 7.021145533097471 1.6292581586578656 Q 7.014943752256638 1.6392904511945061 7.00108094802419 1.6392904511945061 L 6.950372269384443 1.6392904511945061 L 6.769061382449525 1.936611120916757 L 6.769061382449525 2.136162539736476 L 6.850414154655736 2.136162539736476 Q 6.864276958888185 2.136162539736476 6.870296334410169 2.1461948322731166 Q 6.876315709932153 2.1562271248097566 6.876315709932153 2.1697251184045094 Q 6.876315709932153 2.1817638694484778 6.869384307815929 2.191066540709726 Q 6.862452905699705 2.2003692119709743 6.849684533380344 2.2003692119709743 L 6.588115306152303 2.2003692119709743 Q 6.575346933832942 2.2003692119709743 6.56823312639787 2.191066540709726 Q 6.561119318962798 2.1817638694484778 6.561119318962798 2.1697251184045094 Q 6.561119318962798 2.1562271248097566 6.56732109980363 2.1461948322731166 Q 6.573522880644462 2.136162539736476 6.587385684876911 2.136162539736476 L 6.683695693228659 2.136162539736476 L 6.683695693228659 1.9307741507136207 L 6.510410640323052 1.6392904511945061 L 6.433435595769193 1.6392904511945061 Q 6.419572791536745 1.6392904511945061 6.413371010695912 1.6292581586578656 Q 6.40716922985508 1.6192258661212255 6.40716922985508 1.6057278725264728 Q 6.40716922985508 1.5936891214825044 6.4142830372901525 1.5843864502212561 Q 6.4213968447252245 1.5750837789600078 6.434165217044585 1.5750837789600078 L 6.650862735836017 1.5750837789600078 Q 6.663631108155378 1.5750837789600078 6.67074491559045 1.5843864502212561 Q 6.677858723025522 1.5936891214825044 6.677858723025522 1.6057278725264728 Q 6.677858723025522 1.6192258661212255 6.67165694218469 1.6292581586578656 Q 6.665455161343857 1.6392904511945061 6.651592357111409 1.6392904511945061 L 6.600154057196272 1.6392904511945061 L 6.740606152709236 1.8753229337838266 L 6.879599005671417 1.6392904511945061 L 6.820499682364663 1.6392904511945061 Q 6.806636878132215 1.6392904511945061 6.800435097291382 1.6292581586578656 Q 6.79423331645055 1.6192258661212255 6.79423331645055 1.6057278725264728 Q 6.79423331645055 1.5936891214825044 6.8013471238856225 1.5843864502212561 Q 6.8084609313206945 1.5750837789600078 6.821229303640055 1.5750837789600078 L 7.000351326748797 1.5750837789600078 Q 7.013119699068158 1.5750837789600078 7.020233506503231 1.5843864502212561 Q 7.027347313938303 1.5936891214825044 7.027347313938303 1.6057278725264728 L 7.027347313938303 1.6057278725264728 M 7.233830134874246 2.1697251184045094 Q 7.233830134874246 2.1562271248097566 7.240031915715078 2.1461948322731166 Q 7.246233696555911 2.136162539736476 7.260096500788359 2.136162539736476 L 7.34144927299457 2.136162539736476 L 7.34144927299457 1.6392904511945061 L 7.2677575241799754 1.6392904511945061 Q 7.253894719947527 1.6392904511945061 7.247692939106694 1.6292581586578656 Q 7.2414911582658625 1.6192258661212255 7.2414911582658625 1.6057278725264728 Q 7.2414911582658625 1.5936891214825044 7.248604965700935 1.5843864502212561 Q 7.255718773136007 1.5750837789600078 7.268487145455367 1.5750837789600078 L 7.500141900392336 1.5750837789600078 Q 7.5129102727116965 1.5750837789600078 7.51984167482792 1.5843864502212561 Q 7.526773076944145 1.5936891214825044 7.526773076944145 1.6057278725264728 Q 7.526773076944145 1.6192258661212255 7.52075370142216 1.6292581586578656 Q 7.514734325900176 1.6392904511945061 7.500871521667728 1.6392904511945061 L 7.426814962215437 1.6392904511945061 L 7.426814962215437 1.8490565678697137 L 7.766818476548122 1.8490565678697137 L 7.766818476548122 1.6392904511945061 L 7.69276191709583 1.6392904511945061 Q 7.678899112863382 1.6392904511945061 7.67269733202255 1.6292581586578656 Q 7.666495551181717 1.6192258661212255 7.666495551181717 1.6057278725264728 Q 7.666495551181717 1.5936891214825044 7.67360935861679 1.5843864502212561 Q 7.6807231660518624 1.5750837789600078 7.693491538371223 1.5750837789600078 L 7.9174852699165745 1.5750837789600078 Q 7.930253642235935 1.5750837789600078 7.937367449671008 1.5843864502212561 Q 7.94448125710608 1.5936891214825044 7.94448125710608 1.6057278725264728 Q 7.94448125710608 1.6192258661212255 7.938279476265247 1.6292581586578656 Q 7.932077695424415 1.6392904511945061 7.918214891191967 1.6392904511945061 L 7.851819355131292 1.6392904511945061 L 7.851819355131292 2.136162539736476 L 7.918214891191967 2.136162539736476 Q 7.932077695424415 2.136162539736476 7.938279476265247 2.1461948322731166 Q 7.94448125710608 2.1562271248097566 7.94448125710608 2.1697251184045094 Q 7.94448125710608 2.1817638694484778 7.937367449671008 2.191066540709726 Q 7.930253642235935 2.2003692119709743 7.9174852699165745 2.2003692119709743 L 7.693491538371223 2.2003692119709743 Q 7.6807231660518624 2.2003692119709743 7.67360935861679 2.191066540709726 Q 7.666495551181717 2.1817638694484778 7.666495551181717 2.1697251184045094 Q 7.666495551181717 2.1562271248097566 7.67269733202255 2.1461948322731166 Q 7.678899112863382 2.136162539736476 7.69276191709583 2.136162539736476 L 7.766818476548122 2.136162539736476 L 7.766818476548122 1.912898429466516 L 7.426814962215437 1.912898429466516 L 7.426814962215437 2.136162539736476 L 7.500871521667728 2.136162539736476 Q 7.514734325900176 2.136162539736476 7.52075370142216 2.1461948322731166 Q 7.526773076944145 2.1562271248097566 7.526773076944145 2.1697251184045094 Q 7.526773076944145 2.1817638694484778 7.51984167482792 2.191066540709726 Q 7.5129102727116965 2.2003692119709743 7.500141900392336 2.2003692119709743 L 7.260826122063751 2.2003692119709743 Q 7.24805774974439 2.2003692119709743 7.240943942309318 2.191066540709726 Q 7.233830134874246 2.1817638694484778 7.233830134874246 2.1697251184045094 L 7.233830134874246 2.1697251184045094 M 8.38170680638475 1.9636071081062618 Q 8.38170680638475 1.9763754804256224 8.375140214906223 1.9845837197737826 Q 8.368573623427695 1.992791959121943 8.356170061746031 1.992791959121943 Q 8.344860931977454 1.992791959121943 8.337382313904685 1.9854957463680225 Q 8.329903695831918 1.9781995336141023 8.32698521073035 1.967984835758614 L 8.308379868207853 1.9001300571471555 L 8.186533115217385 1.9001300571471555 L 8.186533115217385 2.136162539736476 L 8.508660908302964 2.136162539736476 L 8.550978942275702 2.0157750292967918 Q 8.556086291203446 2.004465899528215 8.565206557145846 1.996257660180055 Q 8.574326823088246 1.9880494208318946 8.58855443795839 1.9880494208318946 Q 8.600593189002359 1.9880494208318946 8.60788940175628 1.9953456335858148 Q 8.6151856145102 2.0026418463397353 8.6151856145102 2.0150454080213995 Q 8.6151856145102 2.0186935143983598 8.614638398553655 2.02234162077532 Q 8.614091182597111 2.02598972715228 8.612996750684024 2.029273022891544 L 8.590013680509175 2.171913982230685 Q 8.586365574132214 2.1850471651877417 8.579798982653687 2.192708188579358 Q 8.573232391175159 2.2003692119709743 8.560099208218102 2.2003692119709743 L 7.998290826166241 2.2003692119709743 Q 7.9855224538468805 2.2003692119709743 7.9784086464118085 2.191066540709726 Q 7.971294838976736 2.1817638694484778 7.971294838976736 2.1697251184045094 Q 7.971294838976736 2.1562271248097566 7.977496619817568 2.1461948322731166 Q 7.983698400658401 2.136162539736476 7.997561204890849 2.136162539736476 L 8.101532236634213 2.136162539736476 L 8.101532236634213 1.6392904511945061 L 8.034771889935843 1.6392904511945061 Q 8.020909085703394 1.6392904511945061 8.01488971018141 1.6292581586578656 Q 8.008870334659425 1.6192258661212255 8.008870334659425 1.6057278725264728 Q 8.008870334659425 1.5936891214825044 8.01580173677565 1.5843864502212561 Q 8.022733138891875 1.5750837789600078 8.035501511211235 1.5750837789600078 L 8.545141972072566 1.5750837789600078 Q 8.558275155029621 1.5750837789600078 8.564476935870454 1.5829272076704721 Q 8.570678716711287 1.5907706363809364 8.575056444363637 1.603539008700297 L 8.610078265582455 1.719183980849933 Q 8.611172697495544 1.723196897864589 8.611719913452088 1.7268450042415493 Q 8.612267129408632 1.7304931106185095 8.612267129408632 1.7334115957200775 Q 8.612267129408632 1.7454503467640459 8.604788511335864 1.7529289648368143 Q 8.597309893263095 1.7604075829095824 8.585635952856823 1.7604075829095824 Q 8.57213795926207 1.7604075829095824 8.562470477363126 1.7521993435614223 Q 8.552802995464182 1.7439911042132619 8.548060457174133 1.7326819744446855 L 8.508660908302964 1.6392904511945061 L 8.186533115217385 1.6392904511945061 L 8.186533115217385 1.8475973253189295 L 8.308379868207853 1.8475973253189295 L 8.32698521073035 1.7797425467074712 Q 8.329903695831918 1.7695278488519828 8.337382313904685 1.7622316360980625 Q 8.344860931977454 1.7549354233441423 8.356170061746031 1.7549354233441423 Q 8.368573623427695 1.7549354233441423 8.375140214906223 1.7631436626923027 Q 8.38170680638475 1.7713519020404629 8.38170680638475 1.7841202743598235 L 8.376234646819311 1.8724044486822584 L 8.38170680638475 1.9636071081062618 M 8.644917681482426 2.1697251184045094 Q 8.644917681482426 2.1562271248097566 8.651119462323258 2.1461948322731166 Q 8.65732124316409 2.136162539736476 8.671184047396538 2.136162539736476 L 8.721892726036284 2.136162539736476 L 8.963397368191044 1.5907706363809364 Q 8.968869527756485 1.5780022640615758 8.979813846887366 1.5676051608872394 Q 8.990758166018246 1.557208057712903 9.008269076627654 1.557208057712903 Q 9.026509608512455 1.557208057712903 9.0361770904114 1.5679699715249356 Q 9.045844572310344 1.578731885336968 9.051316731875785 1.5922298789317204 L 9.270567925131088 2.136162539736476 L 9.335504218640978 2.136162539736476 Q 9.349367022873427 2.136162539736476 9.355386398395412 2.1461948322731166 Q 9.361405773917395 2.1562271248097566 9.361405773917395 2.1697251184045094 Q 9.361405773917395 2.1817638694484778 9.354474371801171 2.191066540709726 Q 9.347542969684946 2.2003692119709743 9.334774597365586 2.2003692119709743 L 9.099471736051658 2.2003692119709743 Q 9.086703363732298 2.2003692119709743 9.079589556297226 2.191066540709726 Q 9.072475748862153 2.1817638694484778 9.072475748862153 2.1697251184045094 Q 9.072475748862153 2.1562271248097566 9.078677529702984 2.1461948322731166 Q 9.084879310543817 2.136162539736476 9.098742114776266 2.136162539736476 L 9.178635644431694 2.136162539736476 L 9.124643670052683 1.993521580397335 L 8.860155957723073 1.993521580397335 L 8.8028806876048 2.136162539736476 L 8.870735466216258 2.136162539736476 Q 8.884598270448706 2.136162539736476 8.890800051289538 2.1461948322731166 Q 8.897001832130371 2.1562271248097566 8.897001832130371 2.1697251184045094 Q 8.897001832130371 2.1817638694484778 8.8898880246953 2.191066540709726 Q 8.882774217260225 2.2003692119709743 8.870005844940867 2.2003692119709743 L 8.67191366867193 2.2003692119709743 Q 8.65914529635257 2.2003692119709743 8.652031488917498 2.191066540709726 Q 8.644917681482426 2.1817638694484778 8.644917681482426 2.1697251184045094 L 8.644917681482426 2.1697251184045094 M 8.882774217260225 1.937340742192149 L 9.10384946370401 1.937340742192149 L 8.996959946859079 1.6535180660646507 L 8.882774217260225 1.937340742192149 M 9.7041453680328 1.6057278725264728 Q 9.7041453680328 1.6192258661212255 9.697943587191968 1.6292581586578656 Q 9.691741806351136 1.6392904511945061 9.677879002118686 1.6392904511945061 L 9.596526229912476 1.6392904511945061 L 9.596526229912476 2.136162539736476 L 9.853352918850469 2.136162539736476 Q 9.88436182305463 2.136162539736476 9.906797677272936 2.1274070844317716 Q 9.92923353149124 2.1186516291270676 9.931787205955112 2.089831588749082 L 9.942366714448296 1.9873197995565026 Q 9.943825956999081 1.9752810485125343 9.951669385709545 1.969808888947094 Q 9.959512814420009 1.9643367293816538 9.97228118673937 1.9643367293816538 Q 9.985779180334122 1.9643367293816538 9.995811472870763 1.971632942135574 Q 10.005843765407404 1.9789291548894943 10.005843765407404 1.993521580397335 L 9.989427286711082 2.1755620886076454 Q 9.988332854797994 2.185776786463134 9.982860695232555 2.193072999217054 Q 9.977388535667114 2.2003692119709743 9.967173837811625 2.2003692119709743 L 9.402082160020502 2.2003692119709743 Q 9.389313787701141 2.2003692119709743 9.38219998026607 2.191066540709726 Q 9.375086172830997 2.1817638694484778 9.375086172830997 2.1697251184045094 Q 9.375086172830997 2.1562271248097566 9.381287953671828 2.1461948322731166 Q 9.387489734512661 2.136162539736476 9.40135253874511 2.136162539736476 L 9.511160540691609 2.136162539736476 L 9.511160540691609 1.6392904511945061 L 9.423970798282262 1.6392904511945061 Q 9.410107994049813 1.6392904511945061 9.403906213208982 1.6292581586578656 Q 9.39770443236815 1.6192258661212255 9.39770443236815 1.6057278725264728 Q 9.39770443236815 1.5936891214825044 9.404818239803221 1.5843864502212561 Q 9.411932047238293 1.5750837789600078 9.424700419557654 1.5750837789600078 L 9.677149380843295 1.5750837789600078 Q 9.689917753162655 1.5750837789600078 9.697031560597727 1.5843864502212561 Q 9.7041453680328 1.5936891214825044 9.7041453680328 1.6057278725264728 L 9.7041453680328 1.6057278725264728 M 10.070232842960749 1.7684334169388949 Q 10.05819409191678 1.7684334169388949 10.0518099057571 1.7604075829095824 Q 10.04542571959742 1.7523817488802702 10.04542571959742 1.7392485659232138 L 10.05089787916286 1.603539008700297 Q 10.051262689800556 1.5893113938301524 10.056005228090605 1.58219758639508 Q 10.060747766380652 1.5750837789600078 10.073151328062318 1.5750837789600078 L 10.599208267619968 1.5750837789600078 Q 10.61088220802624 1.5750837789600078 10.615989556953984 1.582379991713928 Q 10.621096905881728 1.5896762044678483 10.621461716519425 1.603539008700297 L 10.626933876084866 1.7392485659232138 Q 10.626933876084866 1.7523817488802702 10.620549689925186 1.7604075829095824 Q 10.614165503765506 1.7684334169388949 10.602126752721537 1.7684334169388949 Q 10.589358380402176 1.7684334169388949 10.581514951691712 1.7629612573734545 Q 10.573671522981247 1.7574890978080144 10.572212280430463 1.7439911042132619 L 10.560903150661886 1.6392904511945061 L 10.37484972543692 1.6392904511945061 L 10.37484972543692 2.136162539736476 L 10.471524544426364 2.136162539736476 Q 10.485387348658811 2.136162539736476 10.491406724180797 2.1461948322731166 Q 10.49742609970278 2.1562271248097566 10.49742609970278 2.1697251184045094 Q 10.49742609970278 2.1817638694484778 10.490494697586556 2.191066540709726 Q 10.483563295470333 2.2003692119709743 10.470794923150972 2.2003692119709743 L 10.194268459777394 2.2003692119709743 Q 10.181500087458033 2.2003692119709743 10.174386280022961 2.191066540709726 Q 10.16727247258789 2.1817638694484778 10.16727247258789 2.1697251184045094 Q 10.16727247258789 2.1562271248097566 10.17347425342872 2.1461948322731166 Q 10.179676034269553 2.136162539736476 10.193538838502002 2.136162539736476 L 10.289848846853749 2.136162539736476 L 10.289848846853749 1.6392904511945061 L 10.111091634382703 1.6392904511945061 L 10.100147315251823 1.7439911042132619 Q 10.098688072701039 1.7578539084457103 10.090844643990573 1.7631436626923027 Q 10.08300121528011 1.7684334169388949 10.070232842960749 1.7684334169388949 L 10.070232842960749 1.7684334169388949 M 10.653017836680132 2.1697251184045094 Q 10.653017836680132 2.1562271248097566 10.659219617520963 2.1461948322731166 Q 10.665421398361795 2.136162539736476 10.679284202594244 2.136162539736476 L 10.760636974800455 2.136162539736476 L 10.760636974800455 1.6392904511945061 L 10.686945225985859 1.6392904511945061 Q 10.673082421753412 1.6392904511945061 10.666880640912579 1.6292581586578656 Q 10.660678860071746 1.6192258661212255 10.660678860071746 1.6057278725264728 Q 10.660678860071746 1.5936891214825044 10.66779266750682 1.5843864502212561 Q 10.674906474941892 1.5750837789600078 10.687674847261253 1.5750837789600078 L 10.91932960219822 1.5750837789600078 Q 10.93209797451758 1.5750837789600078 10.939029376633805 1.5843864502212561 Q 10.94596077875003 1.5936891214825044 10.94596077875003 1.6057278725264728 Q 10.94596077875003 1.6192258661212255 10.939941403228046 1.6292581586578656 Q 10.93392202770606 1.6392904511945061 10.920059223473613 1.6392904511945061 L 10.846002664021322 1.6392904511945061 L 10.846002664021322 1.8490565678697137 L 11.186006178354006 1.8490565678697137 L 11.186006178354006 1.6392904511945061 L 11.111949618901715 1.6392904511945061 Q 11.098086814669267 1.6392904511945061 11.091885033828435 1.6292581586578656 Q 11.085683252987602 1.6192258661212255 11.085683252987602 1.6057278725264728 Q 11.085683252987602 1.5936891214825044 11.092797060422674 1.5843864502212561 Q 11.099910867857746 1.5750837789600078 11.112679240177107 1.5750837789600078 L 11.336672971722459 1.5750837789600078 Q 11.34944134404182 1.5750837789600078 11.356555151476892 1.5843864502212561 Q 11.363668958911964 1.5936891214825044 11.363668958911964 1.6057278725264728 Q 11.363668958911964 1.6192258661212255 11.357467178071133 1.6292581586578656 Q 11.3512653972303 1.6392904511945061 11.33740259299785 1.6392904511945061 L 11.271007056937178 1.6392904511945061 L 11.271007056937178 2.136162539736476 L 11.33740259299785 2.136162539736476 Q 11.3512653972303 2.136162539736476 11.357467178071133 2.1461948322731166 Q 11.363668958911964 2.1562271248097566 11.363668958911964 2.1697251184045094 Q 11.363668958911964 2.1817638694484778 11.356555151476892 2.191066540709726 Q 11.34944134404182 2.2003692119709743 11.336672971722459 2.2003692119709743 L 11.112679240177107 2.2003692119709743 Q 11.099910867857746 2.2003692119709743 11.092797060422674 2.191066540709726 Q 11.085683252987602 2.1817638694484778 11.085683252987602 2.1697251184045094 Q 11.085683252987602 2.1562271248097566 11.091885033828435 2.1461948322731166 Q 11.098086814669267 2.136162539736476 11.111949618901715 2.136162539736476 L 11.186006178354006 2.136162539736476 L 11.186006178354006 1.912898429466516 L 10.846002664021322 1.912898429466516 L 10.846002664021322 2.136162539736476 L 10.920059223473613 2.136162539736476 Q 10.93392202770606 2.136162539736476 10.939941403228046 2.1461948322731166 Q 10.94596077875003 2.1562271248097566 10.94596077875003 2.1697251184045094 Q 10.94596077875003 2.1817638694484778 10.939029376633805 2.191066540709726 Q 10.93209797451758 2.2003692119709743 10.91932960219822 2.2003692119709743 L 10.680013823869636 2.2003692119709743 Q 10.667245451550276 2.2003692119709743 10.660131644115204 2.191066540709726 Q 10.653017836680132 2.1817638694484778 10.653017836680132 2.1697251184045094 L 10.653017836680132 2.1697251184045094 M 12.020510512083636 1.6057278725264728 Q 12.020510512083636 1.6192258661212255 12.014308731242805 1.6292581586578656 Q 12.008106950401972 1.6392904511945061 11.994244146169523 1.6392904511945061 L 11.943535467529777 1.6392904511945061 L 11.762224580594859 1.936611120916757 L 11.762224580594859 2.136162539736476 L 11.84357735280107 2.136162539736476 Q 11.857440157033519 2.136162539736476 11.863459532555503 2.1461948322731166 Q 11.869478908077488 2.1562271248097566 11.869478908077488 2.1697251184045094 Q 11.869478908077488 2.1817638694484778 11.862547505961263 2.191066540709726 Q 11.855616103845039 2.2003692119709743 11.842847731525678 2.2003692119709743 L 11.581278504297636 2.2003692119709743 Q 11.568510131978277 2.2003692119709743 11.561396324543203 2.191066540709726 Q 11.554282517108131 2.1817638694484778 11.554282517108131 2.1697251184045094 Q 11.554282517108131 2.1562271248097566 11.560484297948964 2.1461948322731166 Q 11.566686078789797 2.136162539736476 11.580548883022244 2.136162539736476 L 11.676858891373993 2.136162539736476 L 11.676858891373993 1.9307741507136207 L 11.503573838468386 1.6392904511945061 L 11.426598793914527 1.6392904511945061 Q 11.412735989682078 1.6392904511945061 11.406534208841247 1.6292581586578656 Q 11.400332428000414 1.6192258661212255 11.400332428000414 1.6057278725264728 Q 11.400332428000414 1.5936891214825044 11.407446235435486 1.5843864502212561 Q 11.414560042870558 1.5750837789600078 11.427328415189919 1.5750837789600078 L 11.64402593398135 1.5750837789600078 Q 11.65679430630071 1.5750837789600078 11.663908113735785 1.5843864502212561 Q 11.671021921170857 1.5936891214825044 11.671021921170857 1.6057278725264728 Q 11.671021921170857 1.6192258661212255 11.664820140330024 1.6292581586578656 Q 11.658618359489191 1.6392904511945061 11.644755555256744 1.6392904511945061 L 11.593317255341605 1.6392904511945061 L 11.73376935085457 1.8753229337838266 L 11.872762203816752 1.6392904511945061 L 11.813662880509996 1.6392904511945061 Q 11.799800076277549 1.6392904511945061 11.793598295436716 1.6292581586578656 Q 11.787396514595883 1.6192258661212255 11.787396514595883 1.6057278725264728 Q 11.787396514595883 1.5936891214825044 11.794510322030956 1.5843864502212561 Q 11.80162412946603 1.5750837789600078 11.81439250178539 1.5750837789600078 L 11.993514524894131 1.5750837789600078 Q 12.006282897213492 1.5750837789600078 12.013396704648564 1.5843864502212561 Q 12.020510512083636 1.5936891214825044 12.020510512083636 1.6057278725264728 L 12.020510512083636 1.6057278725264728" fill="#876a57" fill-rule="nonzero"></path></g></g><defs><clipPath id="SvgjsClipPath77930"><path d=" M 0 -3.022981933285523 h 8.584006152190488 v 2.772981933285523 h -8.584006152190488 Z"></path></clipPath><clipPath id="b56195fb7-4234-4097-9791-97b52e8b6aa567249a3c-1843-4ef0-a30c-840793f45219"><path d=" M -0.015478164042280324 -3.0384531648729696 L 8.599466725758399 -3.0384531648729696 L 8.599466725758399 -0.23452183595771992 L -0.015478164042280324 -0.23452183595771992 Z"></path></clipPath></defs></svg>